HIERARCHY
ROOT hip
{
	OFFSET 0.000000 0.000000 0.000000 
	CHANNELS 6 Xposition Yposition Zposition Zrotation Yrotation Xrotation
	JOINT abdomen
	{
		OFFSET 0.000000 20.688101 -0.731520 
		CHANNELS 3 Zrotation Xrotation Yrotation
		JOINT chest
		{
			OFFSET 0.000000 11.704300 -0.487680 
			CHANNELS 3 Zrotation Xrotation Yrotation
			JOINT neck
			{
				OFFSET 0.000000 22.189400 -2.194560 
				CHANNELS 3 Zrotation Xrotation Yrotation
				JOINT head
				{
					OFFSET -0.243840 7.071330 1.219200 
					CHANNELS 3 Zrotation Xrotation Yrotation
					End Site
					{
						OFFSET 1.000000 0.000000 0.000000 
					}
				}
			}
			JOINT rCollar
			{
				OFFSET -2.682240 19.263399 -4.876800 
				CHANNELS 3 Zrotation Xrotation Yrotation
				JOINT rShldr
				{
					OFFSET -8.778240 -1.950730 1.463040 
					CHANNELS 3 Zrotation Xrotation Yrotation
					JOINT rForeArm
					{
						OFFSET -28.174200 -1.711500 0.487680 
						CHANNELS 3 Zrotation Xrotation Yrotation
						JOINT rHand
						{
							OFFSET -22.587900 0.773209 7.071360 
							CHANNELS 3 Zrotation Xrotation Yrotation
							End Site
							{
								OFFSET -1.782710 -1.182140 1.430490 
							}
						}
					}
				}
			}
			JOINT lCollar
			{
				OFFSET 2.682240 19.263399 -4.876800 
				CHANNELS 3 Zrotation Xrotation Yrotation
				JOINT lShldr
				{
					OFFSET 8.778240 -1.950730 1.463040 
					CHANNELS 3 Zrotation Xrotation Yrotation
					JOINT lForeArm
					{
						OFFSET 28.174200 -1.711500 0.487680 
						CHANNELS 3 Zrotation Xrotation Yrotation
						JOINT lHand
						{
							OFFSET 22.587900 0.773209 7.071360 
							CHANNELS 3 Zrotation Xrotation Yrotation
							End Site
							{
								OFFSET 1.782710 -1.182140 1.430490 
							}
						}
					}
				}
			}
		}
	}
	JOINT rButtock
	{
		OFFSET -8.778240 4.350840 1.219200 
		CHANNELS 3 Zrotation Xrotation Yrotation
		JOINT rThigh
		{
			OFFSET 0.000000 -1.706870 -2.194560 
			CHANNELS 3 Zrotation Xrotation Yrotation
			JOINT rShin
			{
				OFFSET 0.000000 -36.819901 0.731520 
				CHANNELS 3 Zrotation Xrotation Yrotation
				JOINT rFoot
				{
					OFFSET 0.731520 -45.110401 -5.120640 
					CHANNELS 3 Zrotation Xrotation Yrotation
					End Site
					{
						OFFSET -1.122100 -3.699640 12.103000 
					}
				}
			}
		}
	}
	JOINT lButtock
	{
		OFFSET 8.778240 4.350840 1.219200 
		CHANNELS 3 Zrotation Xrotation Yrotation
		JOINT lThigh
		{
			OFFSET 0.000000 -1.706870 -2.194560 
			CHANNELS 3 Zrotation Xrotation Yrotation
			JOINT lShin
			{
				OFFSET 0.000000 -36.819901 0.731520 
				CHANNELS 3 Zrotation Xrotation Yrotation
				JOINT lFoot
				{
					OFFSET -0.731520 -45.110401 -5.120640 
					CHANNELS 3 Zrotation Xrotation Yrotation
					End Site
					{
						OFFSET 1.122100 -3.699640 12.103000 
					}
				}
			}
		}
	}
}
MOTION
Frames: 7
Frame Time: 0.008333
-43.156399 85.096603 0.177423 0.000000 0.000000 0.000000 0.283894 -0.002914 0.008161 0.078459 -0.004733 0.013594 0.000000 0.000000 -0.000000 0.000000 0.000000 -0.000000 0.000000 -0.000000 0.000000 0.000000 -0.000000 0.000000 0.000000 -0.000000 -0.000000 0.000000 0.000000 -0.000000 0.000000 -0.000000 -0.000000 0.000000 -0.000000 -0.000000 0.000000 0.000000 -0.000000 0.000000 -0.000000 -0.000000 -0.000000 0.000000 -0.000000 0.668908 -3.858530 -0.057248 -0.003418 1.437940 -0.027440 -0.455250 2.421050 0.100329 0.000000 0.000000 0.000000 -0.234829 -2.724190 0.029939 0.006626 -0.616662 0.057973 0.449444 3.341270 -0.117942 
-36.764500 83.594704 -5.339400 -51.588600 87.587799 -49.057400 1.245950 -0.787614 0.817912 -0.026371 -0.320242 0.252892 -0.062796 -0.561706 -0.507598 1.089340 4.108700 -0.736010 0.000000 0.000000 -0.000000 16.409401 12.913200 7.519110 -19.863400 -17.623400 15.274300 0.038511 -4.370550 -0.607876 0.000000 0.000000 -0.000000 -21.916599 7.349360 0.522500 4.599870 -2.171480 -7.094250 -0.124018 -7.825600 1.063130 -0.000000 0.000000 -0.000000 2.040410 -6.856240 5.466380 0.090105 6.926670 0.261933 -3.235680 -8.305340 -12.200500 0.000000 0.000000 0.000000 0.779610 -5.016180 0.189903 -0.010150 7.299450 -0.085525 0.774343 -0.976588 2.811510 
-37.001499 83.607903 -5.516660 -56.812801 87.668404 -54.333302 2.301990 -1.617540 1.655740 -0.134341 -0.655911 0.500522 -0.139145 -1.146180 -1.043520 2.366860 8.460320 -1.525580 0.000000 0.000000 -0.000000 29.708401 25.783600 16.914499 -29.795401 -32.127800 36.125900 -0.023148 -9.031470 -1.268330 0.000000 0.000000 -0.000000 -45.247898 15.125900 1.109710 8.893140 -4.363850 -14.642600 0.072374 -16.096300 2.255990 -0.000000 0.000000 -0.000000 4.132070 -9.879620 11.406200 0.127450 12.739200 0.578565 -11.243400 -18.111300 -26.326200 0.000000 0.000000 0.000000 1.882120 -7.432220 0.408285 0.016916 15.685400 -0.244210 1.586080 -5.468080 5.891420 
-37.173698 83.620499 -5.714640 -56.193401 87.663300 -53.737499 3.236630 -2.355120 2.439240 -0.228123 -0.951191 0.731577 -0.218252 -1.684590 -1.523380 3.590950 12.317900 -2.254270 0.000000 0.000000 -0.000000 37.396301 35.758598 27.471300 -29.533199 -36.203098 58.758701 -0.168964 -13.105700 -1.866970 0.000000 0.000000 -0.000000 -66.178902 22.040501 1.677230 12.219900 -6.115820 -21.395100 0.565287 -23.443001 3.444290 -0.000000 0.000000 -0.000000 6.524300 -12.409700 16.799500 0.103564 17.902399 0.877412 -22.586500 -23.974899 -40.514500 0.000000 0.000000 0.000000 2.847390 -9.599840 0.514927 0.083192 23.131201 -0.402819 2.756780 -9.504980 8.790400 
-37.286701 83.632797 -5.895990 -53.263302 87.516502 -50.819698 3.823110 -2.863450 3.085300 -0.291828 -1.145560 0.921114 -0.284044 -2.108290 -1.862560 4.450660 14.948000 -2.786400 0.000000 0.000000 -0.000000 40.376099 41.535801 36.027699 -28.303801 -32.931599 71.959198 -0.312972 -15.719200 -2.266920 0.000000 0.000000 -0.000000 -80.788696 26.807899 2.088280 14.245200 -7.154010 -26.048700 1.112970 -28.511700 4.378480 -0.000000 0.000000 -0.000000 8.451060 -14.101700 20.587000 0.052671 21.443800 1.097250 -32.273800 -25.702999 -51.006500 0.000000 0.000000 0.000000 3.423230 -11.146900 0.334846 0.155785 28.226999 -0.531561 3.938680 -12.502700 11.117000 
-37.456299 83.642403 -6.097320 -58.051300 87.511803 -55.589699 3.900880 -3.064250 3.540820 -0.323203 -1.184750 1.053160 -0.300112 -2.373450 -1.999110 4.666200 15.865600 -3.004880 0.000000 0.000000 0.000000 41.765800 43.986698 38.378799 -28.186100 -29.923500 73.836403 -0.363236 -16.372900 -2.370760 0.000000 0.000000 0.000000 -86.377701 28.608000 2.176880 14.893600 -7.446190 -27.675900 1.375420 -30.445499 4.768580 -0.000000 0.000000 -0.000000 9.189020 -14.880900 21.991600 0.025220 22.725100 1.181510 -36.185699 -25.651300 -55.103802 0.000000 0.000000 0.000000 3.413820 -11.811700 -0.260540 0.188091 30.019899 -0.594508 4.754950 -14.195600 12.569700 
-37.692501 83.658302 -6.302390 -65.639198 87.559898 -63.073601 3.609360 -3.045220 3.859710 -0.331965 -1.113790 1.144090 -0.279134 -2.525410 -1.991050 4.397210 15.561600 -2.990440 0.000000 0.000000 0.000000 43.262299 44.694302 35.344700 -27.898701 -28.268600 69.380600 -0.329391 -15.623800 -2.256110 0.000000 0.000000 0.000000 -85.485199 28.288300 2.012490 14.649400 -7.274410 -27.129499 1.336490 -30.146700 4.708210 -0.000000 0.000000 -0.000000 8.952890 -15.081300 21.658400 0.029321 22.391899 1.161680 -35.529099 -25.412399 -54.661201 0.000000 0.000000 0.000000 2.991520 -11.844700 -1.151480 0.177972 29.454399 -0.602163 5.199020 -14.979200 13.362400 
